# xmcd
#
# Track frame offsets:
#	150
#	11326
#	23581
#	34972
#	48226
#	57539
#	68895
#	82739
#	95512
#	109407
#
# Disc length: 1590 seconds
#
# Revision: 1
# Processed by: cddbd v1.5.2PL0 Copyright (c) Steve Scherf et al.
# Submitted via: audiograbber 1.83.01
#
DISCID=7806340a
DTITLE=Jean Shepard - Greatest Hits
DYEAR=1976
DGENRE=Country
TTITLE0=Slippin' Away
TTITLE1=I'll Do Anything It Takes (To Stay With You)
TTITLE2=Mercy
TTITLE3=The Tip Of My Fingers
TTITLE4=Ain't Love Good
TTITLE5=At The Time
TTITLE6=Poor Sweet Baby
TTITLE7=I'm A Believer (In A Whole Lot Of Lovin')
TTITLE8=Another Neon Night
TTITLE9=Come On Phone
EXTD=
EXTT0=
EXTT1=
EXTT2=
EXTT3=
EXTT4=
EXTT5=
EXTT6=
EXTT7=
EXTT8=
EXTT9=
PLAYORDER=
